<mxfile host="app.diagrams.net" agent="Mozilla/5.0 (Windows NT 10.0; Win64; x64) AppleWebKit/537.36 (KHTML, like Gecko) Chrome/141.0.0.0 Safari/537.36" version="28.2.3">
  <diagram name="Page-1" id="0yC6ZMKR3TFo-O140jHc">
    <mxGraphModel dx="2946" dy="1137" grid="1" gridSize="10" guides="1" tooltips="1" connect="1" arrows="1" fold="1" page="1" pageScale="1" pageWidth="850" pageHeight="1100" math="0" shadow="0">
      <root>
        <mxCell id="0" />
        <mxCell id="1" parent="0" />
        <mxCell id="5qtP5wbx_pShr_hAKRlN-6" value="" style="rounded=0;whiteSpace=wrap;html=1;" vertex="1" parent="1">
          <mxGeometry x="425" y="230" width="175" height="280" as="geometry" />
        </mxCell>
        <mxCell id="5qtP5wbx_pShr_hAKRlN-1" value="" style="rounded=0;whiteSpace=wrap;html=1;" vertex="1" parent="1">
          <mxGeometry x="120" y="210" width="620" height="400" as="geometry" />
        </mxCell>
        <mxCell id="5qtP5wbx_pShr_hAKRlN-7" style="edgeStyle=orthogonalEdgeStyle;rounded=0;orthogonalLoop=1;jettySize=auto;html=1;entryX=0;entryY=0.75;entryDx=0;entryDy=0;" edge="1" parent="1" source="5qtP5wbx_pShr_hAKRlN-2" target="5qtP5wbx_pShr_hAKRlN-3">
          <mxGeometry relative="1" as="geometry" />
        </mxCell>
        <mxCell id="5qtP5wbx_pShr_hAKRlN-8" value="HTTP Pull" style="edgeLabel;html=1;align=center;verticalAlign=middle;resizable=0;points=[];" vertex="1" connectable="0" parent="5qtP5wbx_pShr_hAKRlN-7">
          <mxGeometry x="-0.386" relative="1" as="geometry">
            <mxPoint as="offset" />
          </mxGeometry>
        </mxCell>
        <mxCell id="5qtP5wbx_pShr_hAKRlN-12" style="edgeStyle=orthogonalEdgeStyle;rounded=0;orthogonalLoop=1;jettySize=auto;html=1;" edge="1" parent="1" source="5qtP5wbx_pShr_hAKRlN-2" target="5qtP5wbx_pShr_hAKRlN-11">
          <mxGeometry relative="1" as="geometry" />
        </mxCell>
        <mxCell id="5qtP5wbx_pShr_hAKRlN-2" value="Investor Portal UI" style="rounded=0;whiteSpace=wrap;html=1;" vertex="1" parent="1">
          <mxGeometry x="150" y="250" width="120" height="60" as="geometry" />
        </mxCell>
        <mxCell id="5qtP5wbx_pShr_hAKRlN-3" value="Golding WebComponent" style="rounded=0;whiteSpace=wrap;html=1;" vertex="1" parent="1">
          <mxGeometry x="470" y="250" width="120" height="60" as="geometry" />
        </mxCell>
        <mxCell id="5qtP5wbx_pShr_hAKRlN-4" value="Golding WebComponent" style="rounded=0;whiteSpace=wrap;html=1;" vertex="1" parent="1">
          <mxGeometry x="470" y="330" width="120" height="60" as="geometry" />
        </mxCell>
        <mxCell id="5qtP5wbx_pShr_hAKRlN-5" value="Golding WebComponent" style="rounded=0;whiteSpace=wrap;html=1;" vertex="1" parent="1">
          <mxGeometry x="470" y="410" width="120" height="60" as="geometry" />
        </mxCell>
        <mxCell id="5qtP5wbx_pShr_hAKRlN-17" style="edgeStyle=orthogonalEdgeStyle;rounded=0;orthogonalLoop=1;jettySize=auto;html=1;" edge="1" parent="1" source="5qtP5wbx_pShr_hAKRlN-9" target="5qtP5wbx_pShr_hAKRlN-16">
          <mxGeometry relative="1" as="geometry">
            <Array as="points">
              <mxPoint x="360" y="500" />
              <mxPoint x="395" y="500" />
            </Array>
          </mxGeometry>
        </mxCell>
        <mxCell id="5qtP5wbx_pShr_hAKRlN-9" value="Golding WebComponents Consumer API" style="rounded=0;whiteSpace=wrap;html=1;" vertex="1" parent="1">
          <mxGeometry x="170" y="520" width="380" height="60" as="geometry" />
        </mxCell>
        <mxCell id="5qtP5wbx_pShr_hAKRlN-10" style="edgeStyle=orthogonalEdgeStyle;rounded=0;orthogonalLoop=1;jettySize=auto;html=1;entryX=0.5;entryY=1;entryDx=0;entryDy=0;" edge="1" parent="1" source="5qtP5wbx_pShr_hAKRlN-3" target="5qtP5wbx_pShr_hAKRlN-13">
          <mxGeometry relative="1" as="geometry">
            <Array as="points">
              <mxPoint x="690" y="280" />
              <mxPoint x="690" y="415" />
              <mxPoint x="660" y="415" />
              <mxPoint x="660" y="500" />
              <mxPoint x="395" y="500" />
            </Array>
          </mxGeometry>
        </mxCell>
        <mxCell id="5qtP5wbx_pShr_hAKRlN-11" value="Investor Portal Backend" style="rounded=0;whiteSpace=wrap;html=1;" vertex="1" parent="1">
          <mxGeometry x="150" y="340" width="140" height="90" as="geometry" />
        </mxCell>
        <mxCell id="5qtP5wbx_pShr_hAKRlN-13" value="Golding Events" style="rounded=0;whiteSpace=wrap;html=1;" vertex="1" parent="1">
          <mxGeometry x="340" y="400" width="110" height="60" as="geometry" />
        </mxCell>
        <mxCell id="5qtP5wbx_pShr_hAKRlN-16" value="Queue" style="sketch=0;outlineConnect=0;fontColor=#232F3E;gradientColor=none;strokeColor=#232F3E;fillColor=#ffffff;dashed=0;verticalLabelPosition=bottom;verticalAlign=top;align=center;html=1;fontSize=12;fontStyle=0;aspect=fixed;shape=mxgraph.aws4.resourceIcon;resIcon=mxgraph.aws4.queue;" vertex="1" parent="1">
          <mxGeometry x="355" y="380" width="80" height="80" as="geometry" />
        </mxCell>
      </root>
    </mxGraphModel>
  </diagram>
</mxfile>
